<?xml version="1.0" standalone="no"?>
<!DOCTYPE svg PUBLIC "-//W3C//DTD SVG 1.1//EN" "http://www.w3.org/Graphics/SVG/1.1/DTD/svg11.dtd" >
<svg xmlns="http://www.w3.org/2000/svg">
<metadata></metadata>
<defs>
<font id="johnston_itcregular" horiz-adv-x="1155" >
<font-face units-per-em="2048" ascent="1638" descent="-410" />
<missing-glyph horiz-adv-x="417" />
<glyph horiz-adv-x="2048" />
<glyph horiz-adv-x="2048" />
<glyph unicode="&#xd;" horiz-adv-x="417" />
<glyph unicode=" "  horiz-adv-x="417" />
<glyph unicode="&#x09;" horiz-adv-x="417" />
<glyph unicode="&#xa0;" horiz-adv-x="417" />
<glyph unicode="!" horiz-adv-x="561" d="M127 109l154 -154l153 154l-153 153zM172 1096l59 -744h99l59 744v280h-217v-280z" />
<glyph unicode="&#x22;" horiz-adv-x="776" d="M106 1159l56 -303h86l55 303v217h-197v-217zM473 1159l55 -303h86l56 303v217h-197v-217z" />
<glyph unicode="#" horiz-adv-x="1372" d="M45 367h215l-94 -447h176l94 447h363l-94 -447h176l94 447h223l31 153h-221l69 334h219l31 154h-217l94 448h-176l-94 -448h-363l95 448h-177l-94 -448h-221l-31 -154h219l-69 -334h-217zM469 520l70 334h362l-70 -334h-362z" />
<glyph unicode="$" d="M113 211q33 -45 70.5 -86t85.5 -73t108.5 -52t138.5 -27v-168h137v172q74 14 137.5 56.5t109.5 101t71.5 130t25.5 145.5q0 88 -30.5 153.5t-79.5 113.5t-110.5 84t-123.5 66v398q49 -10 92 -36t82 -71l127 121q-125 141 -301 162v182h-137v-180q-86 -10 -149.5 -44 t-106.5 -82t-63.5 -105.5t-20.5 -114.5q0 -84 30 -144.5t78 -104.5t109.5 -78t122.5 -62v-514q-49 8 -88 29.5t-69.5 47t-52 54t-34.5 51.5zM365 1063q0 63 43 108.5t108 57.5v-334q-66 35 -108.5 73t-42.5 95zM653 168v434q68 -37 112 -86t44 -121q0 -82 -46 -141t-110 -86 z" />
<glyph unicode="%" horiz-adv-x="1552" d="M109 1079q0 -66 25.5 -124t68.5 -101t101 -68.5t124 -25.5t124 25.5t101 68.5t67.5 101t24.5 124t-24.5 124.5t-67.5 101.5t-101 67.5t-124 24.5t-124 -24.5t-101 -67.5t-68.5 -101.5t-25.5 -124.5zM223 0h199l903 1376h-199zM264 1079q0 68 48 115t116 47t115 -47 t47 -115t-47 -116t-115 -48t-116 48.5t-48 115.5zM807 301q0 -66 25.5 -124t68.5 -101t101.5 -68.5t123.5 -25.5q66 0 124.5 25.5t101.5 68.5t67.5 101t24.5 124t-24.5 124t-67.5 101t-101.5 67.5t-124.5 24.5t-124 -24.5t-101 -67.5t-68.5 -101t-25.5 -124zM963 301 q0 68 48 115t115 47q68 0 115 -47t47 -115t-47 -116t-115 -48t-115.5 48t-47.5 116z" />
<glyph unicode="&#x26;" horiz-adv-x="1402" d="M92 371q0 -88 37 -161t96.5 -124t134 -80t152.5 -29q43 0 95 9.5t107.5 33t112 61.5t107.5 97l186 -178h250l-326 313q37 47 71 100.5t63.5 105.5t53 100.5t38.5 85.5h-197q-23 -59 -62.5 -134t-86.5 -139l-289 279q137 76 208.5 155.5t71.5 194.5q0 49 -20.5 104.5 t-65.5 102.5t-114.5 77.5t-167.5 30.5q-88 0 -155.5 -28.5t-115 -74.5t-72 -104.5t-24.5 -119.5q0 -72 45 -155t137 -161q-145 -84 -207.5 -170t-62.5 -192zM283 375q0 68 42 128t150 115l342 -327q-59 -74 -132 -107.5t-138 -33.5q-61 0 -109.5 18t-83.5 49t-53 72t-18 86z M362 1057q0 25 10.5 53.5t32 52t55.5 39t83 15.5q84 0 136 -50t52 -116q0 -72 -49 -124.5t-158 -109.5q-72 70 -117 128.5t-45 111.5z" />
<glyph unicode="'" horiz-adv-x="409" d="M106 1159l56 -303h86l55 303v217h-197v-217z" />
<glyph unicode="(" horiz-adv-x="614" d="M90 676q0 -258 66.5 -507t185.5 -472h207q-70 121 -120 234.5t-83 230.5t-49 242.5t-16 271.5q0 145 16 271t49 243t83 230.5t120 234.5h-207q-119 -223 -185.5 -472t-66.5 -507z" />
<glyph unicode=")" horiz-adv-x="614" d="M66 -303h206q119 223 185.5 472t66.5 507t-66.5 507t-185.5 472h-206q70 -121 120 -234.5t82.5 -230.5t49 -243t16.5 -271t-16.5 -271t-49 -243t-83 -230.5t-119.5 -234.5z" />
<glyph unicode="*" horiz-adv-x="851" d="M82 911l84 -145l215 166l-39 -283h168l-39 283l215 -166l84 145l-250 101l250 102l-84 146l-215 -166l39 282h-168l39 -282l-215 166l-84 -146l250 -100z" />
<glyph unicode="+" horiz-adv-x="923" d="M45 565h336v-356h162v356h336v162h-336v356h-162v-356h-336v-162z" />
<glyph unicode="," horiz-adv-x="477" d="M-39 -197q10 -2 19.5 -3t19.5 -1q72 0 133.5 18.5t107.5 55.5t72.5 89t26.5 120v149h-197v-157q0 -57 -6 -98.5t-25.5 -72t-55.5 -54t-95 -46.5z" />
<glyph unicode="-" horiz-adv-x="886" d="M106 422h674v182h-674v-182z" />
<glyph unicode="." horiz-adv-x="471" d="M127 0h217v227h-217v-227z" />
<glyph unicode="/" horiz-adv-x="825" d="M66 -264h190l504 1902h-191z" />
<glyph unicode="0" d="M123 690q0 -125 26.5 -252t83 -230.5t142.5 -168t203 -64.5t202.5 64.5t142 168t83 230.5t26.5 252t-26.5 252t-83 229.5t-142.5 168t-202 65.5q-117 0 -203 -65.5t-142.5 -168t-83 -229.5t-26.5 -252zM332 690q0 123 18.5 220.5t52 166t77.5 104.5t98 36q51 0 96 -36 t78.5 -104.5t52 -166t18.5 -220.5t-18.5 -220t-52 -165.5t-78.5 -104.5t-96 -36q-53 0 -97.5 36t-78 104.5t-52 165.5t-18.5 220z" />
<glyph unicode="1" d="M475 0h205v1425l-205 -139v-1286z" />
<glyph unicode="2" d="M143 0h805v182h-467l273 453q43 70 70.5 121t45 95t24.5 85t7 90q0 80 -28.5 149.5t-80 120t-123 80t-155.5 29.5q-113 0 -201 -46t-159 -124v-268q68 104 153.5 177t192.5 73q78 0 135 -51.5t57 -149.5q0 -37 -11 -76t-32.5 -83t-53.5 -96t-71 -118z" />
<glyph unicode="3" d="M102 190q33 -39 76 -77.5t93.5 -69.5t110.5 -49.5t130 -18.5q96 0 181 34t148.5 95.5t100.5 146.5t37 185q0 94 -34 167t-84 122t-110.5 74.5t-113.5 27.5l332 549h-815v-182h483l-313 -522q25 4 67.5 7t77.5 3q76 0 132 -19.5t94 -53.5t56.5 -79t18.5 -94 q0 -78 -25.5 -130t-63.5 -82.5t-82 -43t-81 -12.5q-53 0 -98 18.5t-80 46t-61.5 60.5t-40.5 61z" />
<glyph unicode="4" d="M0 365h698v-365h205v365h232v163h-232v877zM344 528l354 408v-408h-354z" />
<glyph unicode="5" d="M96 184q31 -37 73 -73.5t93 -66.5t112.5 -49.5t133.5 -19.5q88 0 171 34t147.5 94.5t103.5 145.5t39 187q0 94 -35 172t-93.5 132.5t-135 84t-158.5 29.5q-25 0 -55.5 -2t-63.5 -6l27 348h413l107 182h-682l-57 -725q33 12 95 23.5t130 11.5q78 0 134 -24.5t93 -61.5 t54.5 -81t17.5 -83q0 -70 -22.5 -120t-58.5 -82.5t-80 -49t-85 -16.5q-53 0 -98 17.5t-81 44t-62.5 58t-41.5 60.5z" />
<glyph unicode="6" d="M137 506q0 -127 35 -225.5t96.5 -168t142.5 -105.5t173 -36q115 0 201.5 41t144 103.5t86 139t28.5 148.5q0 90 -30.5 168t-85 136.5t-128 92.5t-161.5 34q-68 0 -130.5 -18.5t-111.5 -49.5q27 76 76 154.5t112.5 157.5t136.5 155t148 143h-274q-223 -209 -341 -434 t-118 -436zM344 473q0 20 2 43t6 43q35 31 99.5 61.5t138.5 30.5q106 0 176 -65.5t70 -182.5q0 -43 -16.5 -86t-47.5 -77.5t-76 -57t-102 -22.5q-111 0 -180.5 87t-69.5 226z" />
<glyph unicode="7" d="M166 0h215l672 1376h-885v-182h580z" />
<glyph unicode="8" d="M137 381q0 -92 36 -166t96.5 -127t141.5 -82t173 -29q98 0 178 36t137 92.5t88 129t31 146.5q0 133 -67.5 221t-196.5 166q39 27 73.5 57.5t61 67.5t42 79t15.5 91q0 55 -20.5 115.5t-64.5 110.5t-112.5 83t-164.5 33q-78 0 -144.5 -26.5t-115 -72.5t-76 -108.5 t-27.5 -134.5q0 -90 51.5 -164t130.5 -133q-125 -76 -195.5 -165t-70.5 -220zM346 381q0 96 59.5 162.5t167.5 126.5q98 -47 167 -119t69 -158q0 -66 -23.5 -109.5t-57.5 -70.5t-74 -39t-70 -12q-57 0 -101.5 19.5t-75 50t-46 69.5t-15.5 80zM420 1063q0 72 47 115t117 43 q68 0 116 -41t48 -129q0 -43 -39 -99.5t-127 -91.5q-86 47 -124 92t-38 111z" />
<glyph unicode="9" d="M117 973q0 -90 30.5 -168t85 -136.5t128 -92t161.5 -33.5q68 0 130.5 18.5t111.5 48.5q-27 -76 -76 -154.5t-112.5 -157.5t-136 -154.5t-148.5 -143.5h274q223 209 341 434t118 436q0 125 -35 224.5t-96.5 169t-142 105.5t-172.5 36q-115 0 -202 -41t-144.5 -103.5 t-86 -139.5t-28.5 -148zM326 973q0 43 15 86t46 77.5t76 57.5t104 23q111 0 180.5 -87.5t69.5 -226.5q0 -20 -2 -42.5t-6 -43.5q-35 -31 -99.5 -61.5t-138.5 -30.5q-106 0 -175.5 65.5t-69.5 182.5z" />
<glyph unicode=":" horiz-adv-x="471" d="M127 0h217v227h-217v-227zM127 557h217v227h-217v-227z" />
<glyph unicode=";" horiz-adv-x="477" d="M-39 -197q10 -2 19.5 -3t19.5 -1q72 0 133.5 18.5t107.5 55.5t72.5 89t26.5 120v149h-197v-157q0 -57 -6 -98.5t-25.5 -72t-55.5 -54t-95 -46.5zM137 557h207v227h-207v-227z" />
<glyph unicode="&#x3c;" horiz-adv-x="1204" d="M117 555l970 -414v187l-770 319l770 320v186l-970 -414v-184z" />
<glyph unicode="=" horiz-adv-x="497" d="M154 0h190v1376h-190v-1376z" />
<glyph unicode="&#x3e;" horiz-adv-x="1204" d="M117 141l970 414v184l-970 414v-186l770 -320l-770 -319v-187z" />
<glyph unicode="?" horiz-adv-x="862" d="M25 1159l153 -100q43 92 99.5 127t136.5 35q76 0 126 -42t50 -110q0 -72 -39 -121t-119 -121q-49 -45 -86 -80.5t-61.5 -66.5t-35.5 -61.5t-11 -67.5q0 -57 26.5 -107.5t106.5 -121.5l127 127q-41 41 -53.5 56t-12.5 36q0 14 7 27.5t25.5 34t52.5 52t87 82.5q39 37 73 72 t58.5 74t38.5 84t14 102q0 61 -22.5 121.5t-68.5 109t-116.5 77t-166.5 28.5q-82 0 -144.5 -20.5t-108.5 -54.5t-79 -78t-57 -93zM217 109l154 -154l153 154l-153 153z" />
<glyph unicode="@" horiz-adv-x="1984" d="M123 668q0 -195 65.5 -360t189.5 -285.5t303 -189.5t404 -69q57 0 123 7.5t132.5 21.5t130 33.5t116.5 42.5l-59 133q-39 -18 -91.5 -34.5t-110.5 -29t-120.5 -20.5t-120.5 -8q-209 0 -359.5 63.5t-248.5 168t-144 241.5t-46 285q0 123 47 248.5t137 227t221 166 t299 64.5q147 0 275.5 -55t224.5 -151.5t151.5 -224.5t55.5 -275q0 -96 -20.5 -165t-53.5 -115t-74 -67.5t-84 -21.5q-27 0 -52 10t-46.5 34t-35 59.5t-13.5 86.5v308q0 176 -89 266t-241 90q-80 0 -152.5 -18.5t-150.5 -53.5l-47 -190q66 43 141.5 72.5t161.5 29.5 q33 0 66.5 -8t62.5 -29.5t47.5 -57.5t18.5 -91v-29q-127 0 -224.5 -12t-169.5 -53q-92 -53 -124.5 -123t-32.5 -129t23.5 -109.5t64.5 -87.5t98 -58.5t123 -21.5q68 0 143.5 38t141.5 97q37 -72 105.5 -114.5t172.5 -42.5q90 0 164 39t127 106.5t83 159.5t30 201 q0 178 -70 333.5t-189.5 271.5t-277.5 181.5t-334 65.5q-188 0 -348 -72t-275.5 -190.5t-180 -272.5t-64.5 -317zM778 471q0 29 14.5 58.5t53.5 52.5q47 27 119.5 37t171.5 10v-94q0 -50 6 -95q-115 -96 -215 -96q-80 0 -115 40t-35 87z" />
<glyph unicode="A" horiz-adv-x="1392" d="M33 0h211l139 348h627l139 -348h211l-572 1391h-184zM455 526l241 637l242 -637h-483z" />
<glyph unicode="B" horiz-adv-x="1214" d="M158 0h495q80 0 160 24.5t144.5 75t105.5 127.5t41 181q0 115 -79 217t-234 143q86 41 130 109.5t44 152.5q0 61 -22.5 122.5t-73 112t-129 81t-191.5 30.5h-391v-1376zM354 176v461h234q168 0 237.5 -63.5t69.5 -165.5q0 -113 -77 -172.5t-200 -59.5h-264zM354 813v389 h183q57 0 101 -16.5t71.5 -43t42 -59t14.5 -65.5q0 -205 -258 -205h-154z" />
<glyph unicode="C" horiz-adv-x="1417" d="M117 688q0 -158 57 -290t157.5 -227t232.5 -147.5t284 -52.5q129 0 251 35t230 100v213q-109 -78 -228.5 -120.5t-252.5 -42.5q-109 0 -204 41t-165.5 111.5t-111.5 167.5t-41 212q0 113 41 211t111.5 169t165.5 112t204 41q115 0 242.5 -47t240.5 -121v213 q-115 66 -233.5 102.5t-249.5 36.5q-152 0 -284 -52.5t-232.5 -147.5t-157.5 -227t-57 -290z" />
<glyph unicode="D" horiz-adv-x="1454" d="M158 0h446q154 0 287 51t232.5 142.5t156.5 217t57 277.5q0 154 -60 281t-161.5 218t-237 140t-284.5 49h-436v-1376zM354 178v1020h244q106 0 203.5 -38t169 -105.5t114.5 -160.5t43 -206q0 -104 -34.5 -197.5t-103 -162t-171 -109.5t-235.5 -41h-230z" />
<glyph unicode="E" horiz-adv-x="1118" d="M158 0h870v178h-674v471h527v178h-527v371h674v178h-870v-1376z" />
<glyph unicode="F" horiz-adv-x="1060" d="M158 0h196v649h500v178h-500v371h647v178h-843v-1376z" />
<glyph unicode="G" horiz-adv-x="1540" d="M117 688q0 -158 59.5 -290t161.5 -227t236.5 -147.5t285.5 -52.5q63 0 134 13.5t141.5 36t136.5 51t119 61.5v606h-521v-178h324v-328q-78 -35 -163 -56t-171 -21q-109 0 -206 41t-169.5 111.5t-115.5 167.5t-43 212q0 113 41 211t112.5 169t167.5 112t205 41 q129 0 262 -42t256 -130v213q-131 72 -266 107.5t-248 35.5q-158 0 -293 -55.5t-234.5 -152.5t-155.5 -228t-56 -281z" />
<glyph unicode="H" horiz-adv-x="1495" d="M158 0h196v649h787v-649h196v1376h-196v-549h-787v549h-196v-1376z" />
<glyph unicode="I" horiz-adv-x="512" d="M158 0h196v1376h-196v-1376z" />
<glyph unicode="J" horiz-adv-x="917" d="M49 246q14 -41 41 -88t70 -89t104.5 -70t147.5 -28q82 0 150.5 27t118.5 76t77.5 119.5t27.5 156.5v1026h-196v-1026q0 -102 -47 -147t-125 -45q-72 0 -121 53t-55 131z" />
<glyph unicode="K" horiz-adv-x="1290" d="M158 0h196v698l643 -698h269l-746 778l664 598h-266l-564 -532v532h-196v-1376z" />
<glyph unicode="L" horiz-adv-x="1056" d="M158 0h843v178h-647v1198h-196v-1376z" />
<glyph unicode="M" horiz-adv-x="1691" d="M158 0h196v1085l492 -622l491 622v-1085h197v1376h-197l-491 -637l-492 637h-196v-1376z" />
<glyph unicode="N" horiz-adv-x="1568" d="M158 0h196v1083l860 -1083h197v1376h-197v-1083l-860 1083h-196v-1376z" />
<glyph unicode="O" horiz-adv-x="1695" d="M117 688q0 -158 57 -290t157.5 -227t232.5 -147.5t284 -52.5q150 0 283 52.5t233 147.5t157.5 227t57.5 290t-57.5 290t-157.5 227t-233.5 147.5t-282.5 52.5q-152 0 -284 -52.5t-232.5 -147.5t-157.5 -227t-57 -290zM326 688q0 113 41 211t111.5 169t165.5 112t204 41 t204 -41t165.5 -112t111.5 -169t41 -211q0 -115 -41 -212t-111.5 -167.5t-166 -111.5t-203.5 -41q-109 0 -204 41t-165.5 111.5t-111.5 167.5t-41 212z" />
<glyph unicode="P" horiz-adv-x="1103" d="M158 0h196v549h232q88 0 171 25.5t148.5 76.5t105.5 130.5t40 185.5q0 74 -26 146.5t-83 131t-147 95t-222 36.5h-415v-1376zM354 727v471h205q80 0 134.5 -20.5t86 -53t45 -74.5t13.5 -87q0 -117 -74 -176.5t-197 -59.5h-213z" />
<glyph unicode="Q" horiz-adv-x="1697" d="M117 688q0 -158 57 -290t157.5 -227t232.5 -147.5t284 -52.5q127 0 240.5 37t205.5 105l154 -154l133 133l-151 152q72 90 110.5 201.5t38.5 242.5q0 158 -57.5 290t-157.5 227t-233.5 147.5t-282.5 52.5q-152 0 -284 -52.5t-232.5 -147.5t-157.5 -227t-57 -290zM326 688 q0 113 41 211t111.5 169t165.5 112t204 41t204 -41t165.5 -112t111.5 -169t41 -211q0 -84 -22.5 -158.5t-63.5 -138.5l-139 141l-135 -135l143 -143q-66 -47 -142.5 -72.5t-162.5 -25.5q-109 0 -204 41t-165.5 111.5t-111.5 167.5t-41 212z" />
<glyph unicode="R" horiz-adv-x="1257" d="M158 0h196v614h181l430 -614h237l-459 651q104 41 174 127t70 217q0 61 -23.5 128t-75.5 123.5t-135 93t-202 36.5h-393v-1376zM354 793v405h170q121 0 187.5 -52.5t66.5 -144.5q0 -41 -13 -78.5t-44 -66.5t-79 -46t-116 -17h-172z" />
<glyph unicode="S" horiz-adv-x="1157" d="M98 322q37 -80 83 -143.5t108.5 -108.5t143.5 -70t190 -25q86 0 164.5 31t139 86t96.5 133t36 170q0 111 -49 184.5t-122 126t-159 89t-158.5 71.5t-122 76t-49.5 102q0 27 9.5 56.5t33 56.5t62.5 44.5t98 17.5q82 0 153.5 -43t118.5 -129l154 122q-78 121 -189.5 178.5 t-240.5 57.5q-86 0 -161 -27.5t-130 -78t-87 -120t-32 -155.5q0 -104 49.5 -172t122 -116t158.5 -83t159 -71.5t122 -86t49 -122.5q0 -47 -19.5 -87t-53.5 -69t-77 -44t-88 -15q-78 0 -133 24.5t-95 64.5t-65.5 88t-42.5 97z" />
<glyph unicode="T" horiz-adv-x="1183" d="M57 1198h437v-1198h196v1198h436v178h-1069v-178z" />
<glyph unicode="U" horiz-adv-x="1523" d="M147 588q0 -160 55.5 -275.5t142.5 -191.5t196.5 -113t220.5 -37t220.5 37t196.5 113t142 191.5t55 275.5v788h-196v-796q0 -123 -42 -205t-104.5 -130t-135.5 -68.5t-136 -20.5t-136 20.5t-135.5 68.5t-104.5 130t-42 205v796h-197v-788z" />
<glyph unicode="V" horiz-adv-x="1370" d="M35 1376l561 -1390h178l561 1390h-209l-438 -1130l-440 1130h-213z" />
<glyph unicode="W" horiz-adv-x="2054" d="M55 1376l451 -1390h205l317 1050l315 -1050h205l451 1390h-207l-346 -1122l-330 1122h-178l-330 -1122l-346 1122h-207z" />
<glyph unicode="X" horiz-adv-x="1396" d="M66 0h239l393 573l394 -573h239l-514 723l465 653h-238l-346 -508l-346 508h-237l465 -653z" />
<glyph unicode="Y" horiz-adv-x="1232" d="M35 1376l483 -727v-649h197v649l483 727h-233l-349 -569l-348 569h-233z" />
<glyph unicode="Z" horiz-adv-x="1329" d="M45 0h1194v178h-846l850 1198h-1130v-178h784z" />
<glyph unicode="[" horiz-adv-x="522" d="M102 -303h387v153h-202v1651h202v154h-387v-1958z" />
<glyph unicode="\" horiz-adv-x="784" d="M45 1638l504 -1902h190l-503 1902h-191z" />
<glyph unicode="]" horiz-adv-x="522" d="M47 -150v-153h387v1958h-387v-154h203v-1651h-203z" />
<glyph unicode="^" horiz-adv-x="1173" d="M102 461q0 -109 41 -198t107.5 -152.5t150.5 -97t172 -33.5q82 0 148.5 22.5t118.5 54.5v-129q0 -121 -77 -174t-202 -53q-102 0 -181 17.5t-159 52.5l-47 -168q86 -29 179 -49.5t227 -20.5q86 0 166.5 20.5t143 67.5t101.5 125t39 193v989h-174v-86q-135 104 -287 104 q-72 0 -153.5 -28.5t-151 -88t-116 -150.5t-46.5 -218zM303 461q0 82 26.5 140t69.5 96t94.5 55.5t100.5 17.5q45 0 83 -10t68.5 -25.5t54 -33t40.5 -31.5v-428q-45 -35 -108.5 -60.5t-141.5 -25.5q-68 0 -121 24.5t-90 65.5t-56.5 97t-19.5 118z" />
<glyph unicode="_" horiz-adv-x="821" d="M-6 -215v-121h833v121h-833z" />
<glyph unicode="`" horiz-adv-x="1024" d="M127 1290l274 -250h222l-275 250h-221z" />
<glyph unicode="a" horiz-adv-x="966" d="M82 256q0 -59 23.5 -109.5t64.5 -87t98.5 -58t122.5 -21.5q72 0 130.5 26.5t127.5 79.5v-86h174v592q0 176 -93 266t-245 90q-80 0 -152.5 -18.5t-150.5 -52.5l-47 -191q66 43 141.5 72.5t161.5 29.5q33 0 67 -8t62.5 -29.5t47 -57.5t18.5 -91v-29q-127 0 -224.5 -12 t-168.5 -53q-92 -53 -125 -123t-33 -129zM274 266q0 29 14.5 58.5t53.5 52.5q47 27 120 37t171 10v-195q-55 -45 -108.5 -65.5t-100.5 -20.5q-80 0 -115 38t-35 85z" />
<glyph unicode="b" horiz-adv-x="1183" d="M154 0h174v86q135 -104 286 -104q72 0 154 28.5t151.5 88t115.5 150.5t46 218q0 109 -41 198t-107.5 151.5t-150.5 97t-172 34.5q-82 0 -148.5 -22.5t-117.5 -55.5v506h-190v-1376zM344 258v428q45 35 108.5 60.5t141.5 25.5q68 0 121 -24.5t90 -65.5t56.5 -97.5 t19.5 -117.5q0 -82 -27 -140.5t-70 -96t-94 -55t-100 -17.5q-45 0 -83 10t-68.5 25.5t-54.5 33t-40 31.5z" />
<glyph unicode="c" horiz-adv-x="1001" d="M102 467q0 -121 42 -212t112 -152.5t159 -92t183 -30.5q84 0 168 20t141 55v209q-41 -35 -119.5 -70.5t-179.5 -35.5q-51 0 -105 17.5t-98.5 54t-73 95t-28.5 142.5q0 63 20.5 119.5t59.5 98.5t95.5 66.5t125.5 24.5q84 0 161 -32.5t142 -77.5v208q-66 37 -149.5 58.5 t-159.5 21.5q-109 0 -200 -40t-156.5 -107.5t-102.5 -155.5t-37 -184z" />
<glyph unicode="d" horiz-adv-x="1183" d="M102 467q0 -127 46.5 -218t116 -150.5t151.5 -88t153 -28.5q152 0 287 104v-86h174v1376h-190v-506q-51 33 -118 55.5t-149 22.5q-88 0 -172 -34.5t-150.5 -97t-107.5 -152t-41 -197.5zM303 467q0 61 19.5 117.5t56.5 97.5t90 65.5t121 24.5q78 0 141.5 -25.5 t108.5 -60.5v-428q-16 -14 -40 -31.5t-54.5 -33t-68.5 -25.5t-83 -10q-49 0 -100.5 17.5t-94.5 55t-69.5 96t-26.5 140.5z" />
<glyph unicode="e" horiz-adv-x="1099" d="M102 469q0 -113 34 -204t95.5 -155.5t149.5 -99.5t197 -35q225 0 401 121v189q-68 -55 -164 -96.5t-213 -41.5q-119 0 -205 64.5t-94 198.5h692v12q0 141 -36.5 240.5t-98 163t-141.5 93t-164 29.5q-117 0 -202 -42t-140 -109.5t-83 -153.5t-28 -174zM303 569 q6 41 22.5 80t45 69t71.5 48t103 18q104 0 168.5 -62.5t70.5 -152.5h-481z" />
<glyph unicode="f" horiz-adv-x="825" d="M51 766h189v-766h190v766h301v162h-301v106q0 109 44 154t128 45q25 0 52.5 -4t53 -10.5t49.5 -14.5t38 -14v182q-59 18 -112.5 25.5t-96.5 7.5q-100 0 -167 -32t-107 -84t-56 -118.5t-16 -136.5v-106h-189v-162z" />
<glyph unicode="g" horiz-adv-x="1077" d="M20 -236q0 -51 26 -101t84 -90t152.5 -64.5t233.5 -24.5q104 0 195.5 18.5t159 56.5t106.5 96t39 138q0 61 -21.5 107.5t-58.5 79t-85 53t-99 33.5q-123 31 -204 47t-128 28.5t-65.5 25.5t-18.5 38q0 31 51 67q41 -10 81 -15t71 -5q84 0 154.5 27.5t120.5 73.5t78 108.5 t28 132.5q0 59 -19.5 102t-48.5 72h180v160h-342q-78 30 -168 30h-6q-76 0 -147.5 -23.5t-128 -69.5t-90 -114.5t-33.5 -156.5q0 -92 42 -156.5t105 -105.5q-123 -68 -123 -160q0 -41 27 -72.5t90 -54.5q-49 -25 -93 -53.5t-76 -62t-50.5 -73.5t-18.5 -92zM203 -217 q0 43 50 95t171 99q80 -23 153.5 -39t130 -36.5t91.5 -47t35 -71.5q0 -23 -14.5 -47.5t-49.5 -44t-95.5 -32.5t-152.5 -13q-98 0 -160.5 14t-97.5 34.5t-48 44t-13 44.5zM303 598q0 86 58.5 137t144.5 51q61 0 103 -17t70 -43t40 -57.5t12 -62.5q0 -49 -17.5 -85t-46 -58.5 t-66.5 -33.5t-79 -11q-96 0 -157.5 48t-61.5 132z" />
<glyph unicode="h" horiz-adv-x="1179" d="M154 0h190v668q47 35 115.5 66.5t146.5 31.5q111 0 175.5 -68.5t64.5 -197.5v-500h190v489q0 145 -44 234.5t-107.5 138.5t-133 65.5t-120.5 16.5q-98 0 -168 -29.5t-119 -62.5v524h-190v-1376z" />
<glyph unicode="i" horiz-adv-x="471" d="M82 1208l154 -153l153 153l-153 154zM139 0h191v928h-191v-928z" />
<glyph unicode="j" horiz-adv-x="475" d="M-66 -283v-174q16 -4 47 -7t66 -3q76 0 130 23.5t89 62.5t51.5 91.5t16.5 109.5v1108h-191v-1075q0 -86 -33.5 -117t-105.5 -31q-16 0 -34.5 3t-35.5 9zM86 1208l154 -153l153 153l-153 154z" />
<glyph unicode="k" horiz-adv-x="1060" d="M154 0h190v422h6l428 -422h258l-544 510l483 418h-258l-373 -350v798h-190v-1376z" />
<glyph unicode="l" horiz-adv-x="694" d="M143 324q0 -78 15.5 -141.5t52.5 -107.5t95.5 -67.5t144.5 -23.5h10q25 0 69 4.5t105 29.5v168q-29 -14 -67 -26.5t-97 -12.5q-41 0 -67.5 14.5t-42 37t-21.5 53.5t-6 65v1059h-191v-1052z" />
<glyph unicode="m" horiz-adv-x="1806" d="M154 0h190v668q53 41 115.5 69.5t134.5 28.5q98 0 158.5 -61.5t60.5 -200.5v-504h191v553q0 29 -3.5 55.5t-7.5 50.5q53 41 123 74t137 33q98 0 159 -61.5t61 -200.5v-504h190v553q0 100 -29.5 174t-80 122t-116 71.5t-134.5 23.5q-111 0 -206.5 -43t-166.5 -92 q-49 68 -123 101.5t-154 33.5q-59 0 -108 -10t-89 -26.5t-72 -35t-56 -32.5v88h-174v-928z" />
<glyph unicode="n" horiz-adv-x="1179" d="M154 0h190v668q47 35 115.5 66.5t146.5 31.5q111 0 175.5 -68.5t64.5 -197.5v-500h190v489q0 145 -44 234.5t-107.5 138.5t-133 65.5t-120.5 16.5q-106 0 -180 -33.5t-123 -68.5v86h-174v-928z" />
<glyph unicode="o" horiz-adv-x="1196" d="M102 463q0 -102 37 -190.5t103.5 -154t156.5 -103.5t199 -38q106 0 197.5 38t158 103.5t103.5 154t37 190.5q0 100 -37 189t-103.5 154.5t-157.5 103.5t-198 38q-109 0 -199 -38t-156.5 -103.5t-103.5 -154.5t-37 -189zM301 463q0 70 22.5 126t62.5 97t94.5 63.5 t117.5 22.5t117.5 -22.5t94.5 -63.5t62.5 -97t22.5 -126t-22.5 -126t-62.5 -97t-94 -63.5t-118 -22.5q-63 0 -117.5 22.5t-94.5 63.5t-62.5 97t-22.5 126z" />
<glyph unicode="p" horiz-adv-x="1183" d="M154 -449h190v506q51 -33 117.5 -55t148.5 -22q88 0 172 33.5t150.5 97t107.5 152.5t41 198q0 127 -46 218t-115.5 150.5t-151.5 88t-154 28.5q-152 0 -286 -104v86h-174v-1377zM344 242v428q16 14 40 31.5t54.5 33t68.5 25.5t83 10q49 0 100 -17.5t94 -55.5t70 -96 t27 -140q0 -61 -19.5 -117.5t-56.5 -97.5t-90 -65.5t-121 -24.5q-78 0 -141.5 25.5t-108.5 60.5z" />
<glyph unicode="q" horiz-adv-x="1183" d="M102 461q0 -109 41 -198t107.5 -152.5t150.5 -97t172 -33.5q82 0 148.5 22.5t118.5 54.5v-506h190v1377h-174v-86q-135 104 -287 104q-72 0 -153.5 -28.5t-151 -88t-116 -150.5t-46.5 -218zM303 461q0 82 26.5 140t69.5 96t94.5 55.5t100.5 17.5q45 0 83 -10t68.5 -25.5 t54 -33t40.5 -31.5v-428q-45 -35 -108.5 -60.5t-141.5 -25.5q-68 0 -121 24.5t-90 65.5t-56.5 97t-19.5 118z" />
<glyph unicode="r" horiz-adv-x="788" d="M154 0h190v668q39 41 89 71.5t122 30.5q51 0 101.5 -18t91.5 -41v196q-47 16 -88.5 26.5t-86.5 10.5q-86 0 -143 -35t-102 -75v94h-174v-928z" />
<glyph unicode="s" horiz-adv-x="940" d="M90 666q0 -55 18.5 -94.5t47.5 -67.5q18 -18 43.5 -33.5t68.5 -34t108.5 -40t166.5 -52.5q47 -14 77.5 -36.5t30.5 -59.5q0 -47 -49 -74t-129 -27q-102 0 -198.5 29t-170.5 70v-195q23 -10 62 -23.5t86 -24.5t102.5 -19.5t110.5 -8.5q96 0 168 25t119 67t70.5 96.5 t23.5 115.5q0 47 -21.5 95t-62.5 77q-18 14 -40 26t-58.5 26.5t-94 34t-145.5 46.5q-78 25 -110.5 45t-32.5 57t37.5 65.5t134.5 28.5q72 0 151.5 -21.5t155.5 -60.5v189q-68 25 -143.5 43t-161.5 18q-94 0 -163 -23.5t-114 -62.5t-66.5 -90t-21.5 -106z" />
<glyph unicode="t" horiz-adv-x="831" d="M59 766h189v-477q0 -96 30.5 -155.5t77.5 -93.5t103.5 -45t109.5 -11q61 0 109.5 10t97.5 33v168q-29 -14 -73 -31t-105 -17q-72 0 -116 32t-44 124v463h281v162h-281v282h-190v-282h-189v-162z" />
<glyph unicode="u" horiz-adv-x="1179" d="M143 436q0 -145 44 -234t107.5 -138.5t133.5 -65.5t121 -16q106 0 180 34.5t123 69.5v-86h174v928h-190v-668q-47 -35 -116 -67.5t-147 -32.5q-111 0 -175 68.5t-64 197.5v502h-191v-492z" />
<glyph unicode="v" horiz-adv-x="1060" d="M39 928l418 -928h176l418 928h-201l-305 -721l-305 721h-201z" />
<glyph unicode="w" horiz-adv-x="1587" d="M29 928l374 -928h168l224 621l221 -621h168l375 928h-197l-256 -676l-242 676h-141l-242 -676l-256 676h-196z" />
<glyph unicode="x" horiz-adv-x="1003" d="M41 0h221l240 373l239 -373h222l-342 498l323 430h-235l-207 -307l-207 307h-236l324 -430z" />
<glyph unicode="y" horiz-adv-x="1028" d="M-25 -289v-170q20 -4 54 -7t51 -3q106 0 185 55.5t151 194.5l579 1147h-200l-306 -631l-313 631h-201l416 -813l-143 -283q-39 -78 -84 -105.5t-111 -27.5q-12 0 -36.5 3t-41.5 9z" />
<glyph unicode="z" horiz-adv-x="976" d="M59 0h834v170h-518l510 758h-766v-170h450z" />
<glyph unicode="{" horiz-adv-x="700" d="M57 627q104 -33 150.5 -87.5t46.5 -140.5v-387q0 -61 6 -118.5t42 -101.5t111.5 -69.5t215.5 -25.5h16v153q-70 0 -110.5 8.5t-62 30t-28 57.5t-6.5 89v360q0 76 -16 125t-44 80t-61.5 48.5t-66.5 27.5q33 10 66.5 27.5t61.5 48t44 80t16 124.5v361q0 53 6.5 89t28 57.5 t62 29.5t110.5 8v154h-16q-139 0 -215 -25.5t-112 -69.5t-42 -101.5t-6 -119.5v-387q0 -86 -46 -140t-151 -87v-98z" />
<glyph unicode="|" horiz-adv-x="1148" d="M123 436q0 -145 44 -234t107.5 -138.5t133 -65.5t120.5 -16q98 0 168 30.5t119 63.5v-148q0 -121 -76.5 -174t-201.5 -53q-100 0 -192.5 21.5t-166.5 52.5l-47 -168q94 -31 191.5 -52.5t232.5 -21.5q86 0 167 20.5t143.5 67.5t101.5 125t39 193v989h-191v-668 q-47 -35 -115.5 -67.5t-146.5 -32.5q-111 0 -175.5 68.5t-64.5 197.5v502h-190v-492z" />
<glyph unicode="}" horiz-adv-x="700" d="M55 -150v-153h17q139 0 214.5 25.5t111.5 69.5t42 101.5t6 118.5v387q0 86 46.5 140.5t150.5 87.5v98q-104 33 -150.5 87t-46.5 140v387q0 61 -6 119t-42 102t-111.5 69.5t-214.5 25.5h-17v-154q70 0 111 -8t62.5 -29.5t27.5 -57.5t6 -89v-361q0 -76 16.5 -125t44 -79.5 t60.5 -48t68 -27.5q-35 -10 -68 -27.5t-60.5 -48.5t-44 -80t-16.5 -125v-360q0 -53 -6 -89t-27.5 -57.5t-62.5 -30t-111 -8.5z" />
<glyph unicode="~" horiz-adv-x="1191" d="M102 463q0 -102 37 -190.5t103.5 -154t156.5 -103.5t199 -38h20q12 0 23 3q119 -88 251 -171t265 -147.5t261 -104.5t237 -40q84 0 177 24.5t173 75.5v182q-25 -18 -64.5 -38.5t-85 -36t-91.5 -25.5t-85 -10q-90 0 -198.5 34.5t-220 87t-217 115t-185.5 119.5 q111 63 173.5 173t62.5 245q0 100 -37 189t-103.5 154.5t-157.5 103.5t-198 38q-109 0 -199 -38t-156.5 -103.5t-103.5 -154.5t-37 -189zM301 463q0 70 22.5 126t62.5 97t94.5 63.5t117.5 22.5t117.5 -22.5t94.5 -63.5t62.5 -97t22.5 -126t-22.5 -126t-62.5 -97t-94 -63.5 t-118 -22.5q-63 0 -117.5 22.5t-94.5 63.5t-62.5 97t-22.5 126z" />
<glyph unicode="&#xa1;" horiz-adv-x="561" d="M127 813l154 -154l153 154l-153 154zM172 -174v-281h217v281l-59 743h-99z" />
<glyph unicode="&#xa2;" d="M164 467q0 -109 34.5 -195t94 -146t137.5 -96t162 -46v-179h133v179q70 6 133.5 24t110.5 47v209q-35 -31 -98.5 -61.5t-145.5 -40.5v610q66 -10 128 -40t116 -66v208q-51 29 -114.5 48.5t-129.5 27.5v178h-133v-178q-96 -12 -174 -56t-135.5 -108.5t-88 -147.5 t-30.5 -171zM365 467q0 111 59 193.5t168 107.5v-600q-43 10 -84 32.5t-73 58.5t-51 88t-19 120z" />
<glyph unicode="&#xa3;" d="M68 0h878l80 182h-637q33 78 51.5 172.5t28.5 212.5h303l70 183h-359v4q2 47 5.5 85t6.5 71.5t6 66.5t9 70q14 92 65.5 131t110.5 39q47 0 95 -29t102 -96l106 176q-59 59 -134 98t-179 39q-59 0 -114.5 -19.5t-102.5 -57.5t-82 -93t-51 -127q-10 -47 -17.5 -89 t-11.5 -84t-7 -86t-5 -95v-4h-111l-70 -183h166q-10 -86 -24.5 -169t-38 -156.5t-58 -135t-81.5 -106.5z" />
<glyph unicode="&#xa4;" d="M-27 479h201q27 -115 81 -209t128 -160.5t164 -102.5t188 -36q102 0 204.5 33t180.5 102v213q-86 -78 -182 -123.5t-203 -45.5q-133 0 -228 92t-142 237h501l47 154h-579q-2 14 -2 26v29q0 16 1 33.5t3 34.5h612l47 153h-626q49 141 143 229.5t223 88.5q78 0 165 -38 t169 -95l53 172q-78 72 -180 105.5t-207 33.5q-98 0 -187 -35t-163 -99.5t-128 -156.5t-81 -205h-158l-45 -153h181q-2 -16 -3 -33.5t-1 -34.5q0 -14 1 -27.5t1 -27.5h-134z" />
<glyph unicode="&#xa5;" d="M-4 1376l418 -628h-230v-154h295v-123h-295v-154h295v-317h197v317h295v154h-295v123h295v154h-230l418 628h-233l-348 -549l-349 549h-233z" />
<glyph unicode="&#xa6;" horiz-adv-x="339" d="M86 -262h168v772h-168v-772zM86 977h168v661h-168v-661z" />
<glyph unicode="&#xa7;" horiz-adv-x="1069" d="M82 451q0 -84 47 -145.5t118.5 -111t154.5 -89t155 -78.5t119 -81t47 -96q0 -31 -15.5 -59.5t-42 -51t-63.5 -35.5t-82 -13q-41 0 -82 14t-76.5 38t-64.5 55.5t-47 66.5l-154 -123q33 -55 81 -98t104.5 -73t118 -46.5t120.5 -16.5q86 0 162 26t133 74t91 116.5t34 152.5 q0 94 -57.5 159.5t-143.5 119.5q109 33 178.5 104.5t69.5 194.5q0 86 -45 149.5t-113.5 113.5t-147.5 91t-147.5 81t-113.5 84t-45 99q0 61 42 105.5t132 44.5q82 0 143.5 -45t95.5 -117l164 117q-68 111 -168 169t-221 58q-92 0 -166.5 -29.5t-127 -77t-81 -108 t-28.5 -123.5q0 -109 55 -183.5t135 -127.5q-74 -18 -124 -50t-82.5 -72t-47 -86t-14.5 -97zM285 473q0 37 19.5 67.5t53 55.5t78.5 40t96 19q49 -25 95.5 -48t81 -49t55 -54.5t20.5 -63.5q0 -76 -68.5 -122t-178.5 -56q-51 25 -96.5 48.5t-80 49t-55 53t-20.5 60.5z" />
<glyph unicode="&#xa8;" horiz-adv-x="1024" d="M242 1069h196v197h-196v-197zM584 1069h196v197h-196v-197z" />
<glyph unicode="&#xa9;" horiz-adv-x="1486" d="M82 625q0 -135 52 -254t142.5 -208t210 -140.5t256.5 -51.5t257 51.5t210 140.5t142.5 208t52.5 254t-52.5 253.5t-142.5 208t-209.5 140.5t-257.5 51q-137 0 -256.5 -51t-210 -140.5t-142.5 -208t-52 -253.5zM172 625q0 117 45 219t123 179t181.5 121t221.5 44 q119 0 222.5 -44t180.5 -121t122 -179t45 -219t-45 -219.5t-122 -179t-180.5 -121t-222.5 -44.5t-222 44.5t-181 121t-123 179t-45 219.5zM367 627q0 -74 23.5 -144.5t71.5 -127t118.5 -91.5t164.5 -35q98 0 164 27.5t109 56.5v107q-78 -55 -139.5 -74.5t-133.5 -19.5 q-74 0 -125 26.5t-83.5 69.5t-48 96t-15.5 109q0 43 15.5 95t49 98t87 77t131.5 31q59 0 120.5 -16.5t141.5 -63.5v104q-66 35 -128.5 53.5t-133.5 18.5q-88 0 -160 -31.5t-123 -86t-78.5 -126t-27.5 -153.5z" />
<glyph unicode="&#xaa;" horiz-adv-x="665" d="M82 961q0 -78 58.5 -130.5t144.5 -52.5q43 0 77.5 13.5t73.5 42.5v-43h127v383q0 117 -60.5 175t-158.5 58t-199 -47l-36 -150q55 37 104 56.5t100 19.5q39 0 76 -21.5t37 -84.5v-9q-76 0 -136.5 -8t-105.5 -35q-59 -35 -80.5 -81t-21.5 -86zM221 969q0 16 8.5 31.5 t30.5 27.5q27 16 68 21.5t98 7.5v-107q-33 -27 -63.5 -38t-57.5 -11q-47 0 -65.5 21.5t-18.5 46.5z" />
<glyph unicode="&#xab;" horiz-adv-x="1003" d="M55 463l303 -391h215l-303 391l303 391h-215zM461 463l303 -391h215l-303 391l303 391h-215z" />
<glyph unicode="&#xac;" horiz-adv-x="849" d="M47 147q76 -88 157 -130t208 -42q90 0 154.5 28t106.5 70t62.5 92t20.5 97q0 104 -65.5 160.5t-184.5 103.5q-76 31 -122 52.5t-71.5 40t-34 35t-8.5 36.5q0 16 7.5 34.5t23.5 35t43 27t66 10.5q111 0 208 -97l111 115q-82 68 -157.5 100.5t-161.5 32.5 q-72 0 -130.5 -23.5t-99.5 -62.5t-63.5 -89t-22.5 -105q0 -88 56.5 -150.5t197.5 -122.5q78 -33 124 -53t69.5 -35.5t31 -32t7.5 -41.5q0 -41 -43 -75.5t-117 -34.5q-82 0 -149.5 41t-96.5 94z" />
<glyph unicode="&#xad;" horiz-adv-x="886" d="M106 422h674v182h-674v-182z" />
<glyph unicode="&#xae;" horiz-adv-x="731" d="M86 1128q0 -57 21.5 -107t59.5 -87t89 -58.5t109 -21.5q57 0 108 21.5t89 58.5t60.5 87t22.5 107t-22.5 107.5t-60.5 87.5t-89 58.5t-108 21.5t-108.5 -21.5t-89.5 -58.5t-59.5 -87t-21.5 -108zM127 1128q0 49 18.5 91.5t51 74t75.5 50t93 18.5q49 0 93 -18.5t75.5 -50 t51 -74t19.5 -91.5t-19.5 -91t-51 -73.5t-75.5 -50t-93 -18.5t-92.5 18.5t-76 50t-51 73.5t-18.5 91zM268 977h47v143h43l91 -143h53l-94 147q35 10 51 34t16 52q0 27 -25.5 55.5t-87.5 28.5h-94v-317zM315 1161v92h50q37 0 50 -13.5t13 -29.5q0 -23 -13.5 -36t-41.5 -13 h-58z" />
<glyph unicode="&#xaf;" horiz-adv-x="1024" d="M227 1102h564v139h-564v-139z" />
<glyph unicode="&#xb0;" horiz-adv-x="643" d="M76 1159q0 -51 19.5 -95t53 -78t77.5 -53.5t96 -19.5q51 0 95 19.5t77.5 53.5t53 78t19.5 95t-19.5 95t-53 78t-77.5 53.5t-95 19.5t-95.5 -19.5t-78 -53.5t-53 -78t-19.5 -95zM174 1159q0 61 43 104.5t105 43.5q61 0 104 -43.5t43 -104.5t-43 -104t-104 -43t-104.5 43 t-43.5 104z" />
<glyph unicode="&#xb1;" horiz-adv-x="923" d="M45 0h834v162h-834v-162zM45 565h336v-356h162v356h336v162h-336v356h-162v-356h-336v-162z" />
<glyph unicode="&#xb2;" horiz-adv-x="761" d="M94 553h533v109h-310l181 272q27 43 46 73.5t29.5 56.5t15.5 50.5t5 54.5q0 47 -19.5 89t-53.5 73t-80 48.5t-101 17.5q-76 0 -133 -28t-105 -75v-161q45 63 101.5 106t126.5 43q53 0 90 -29.5t37 -89.5q0 -47 -29 -96t-82 -129z" />
<glyph unicode="&#xb3;" horiz-adv-x="761" d="M68 668q45 -47 111.5 -88t158.5 -41q63 0 119.5 20.5t97.5 57t65.5 87t24.5 111.5q0 57 -21.5 100t-55 73t-73.5 45.5t-75 15.5l219 329h-537v-108h318l-207 -314q16 2 45 4.5t51 2.5q100 0 149.5 -44.5t49.5 -103.5q0 -47 -16.5 -77.5t-42 -49t-54 -27t-53.5 -8.5 q-35 0 -64.5 11.5t-53 28t-40 36t-26.5 37.5z" />
<glyph unicode="&#xb4;" horiz-adv-x="1024" d="M408 1040h221l274 250h-221z" />
<glyph unicode="&#xb6;" horiz-adv-x="1277" d="M100 893q0 -152 52.5 -241t144.5 -154q55 -39 129 -49.5t170 -10.5v-745h168v1530h209v-1530h168v1683h-506q-96 0 -179 -14t-139 -53q-92 -66 -154.5 -165.5t-62.5 -250.5z" />
<glyph unicode="&#xb7;" horiz-adv-x="708" d="M82 1208l154 -153l153 153l-153 154zM139 324q0 -78 15.5 -141.5t52.5 -107.5t95 -67.5t144 -23.5q23 0 78 7t125 36v168q-29 -14 -76 -31t-106 -17q-41 0 -67.5 14.5t-42 37t-21.5 53.5t-6 65v611h-191v-604z" />
<glyph unicode="&#xb8;" horiz-adv-x="1024" d="M387 -293v-102q8 -2 28.5 -3t28.5 -1q104 0 165 51t61 135q0 61 -38 96t-77 45l12 76h-108l-29 -139q51 -4 81 -26.5t30 -57.5q0 -53 -34 -70.5t-63 -17.5q-33 0 -57 14z" />
<glyph unicode="&#xb9;" horiz-adv-x="761" d="M313 553h136v856l-136 -84v-772z" />
<glyph unicode="&#xba;" horiz-adv-x="808" d="M82 1092q0 -66 23.5 -123.5t66.5 -100.5t102.5 -67.5t128.5 -24.5q70 0 129.5 24.5t102.5 67.5t67.5 100.5t24.5 123.5t-24.5 123t-67.5 100t-102.5 67.5t-129.5 24.5t-129 -24.5t-102 -67.5t-66.5 -100.5t-23.5 -122.5zM227 1092q0 84 50.5 134t125.5 50q76 0 127.5 -50 t51.5 -134t-51.5 -134.5t-127.5 -50.5t-126 50.5t-50 134.5z" />
<glyph unicode="&#xbb;" horiz-adv-x="1003" d="M25 72h215l303 391l-303 391h-215l303 -391zM430 72h215l303 391l-303 391h-215l303 -391z" />
<glyph unicode="&#xbc;" horiz-adv-x="1687" d="M299 608h129v799l-129 -78v-721zM496 -264h190l504 1902h-191zM958 205h441v-205h129v205h145v90h-145v491zM1176 295l223 229v-229h-223z" />
<glyph unicode="&#xbd;" horiz-adv-x="1687" d="M299 608h129v799l-129 -78v-721zM496 -264h190l504 1902h-191zM1049 0h507v102h-294l172 254q27 39 44 68t27.5 53.5t15.5 47t5 50.5q0 90 -68.5 150.5t-175.5 60.5q-72 0 -126 -25.5t-101 -68.5v-151q43 59 97 100t122 41q49 0 85 -28.5t36 -84.5q0 -43 -29 -89 t-78 -120z" />
<glyph unicode="&#xbe;" horiz-adv-x="1687" d="M63 715q43 -43 106.5 -82t152.5 -39q61 0 114 19.5t93 53t63.5 82t23.5 103.5q0 53 -20.5 94t-53 68.5t-70.5 42t-71 14.5l209 307h-514v-102h305l-196 -291q16 2 41.5 3t48.5 1q98 0 144 -40t46 -97q0 -43 -16 -72.5t-39.5 -46t-51.5 -24t-52 -7.5q-66 0 -111 36t-65 69 zM496 -264h190l504 1902h-191zM958 205h441v-205h129v205h145v90h-145v491zM1176 295l223 229v-229h-223z" />
<glyph unicode="&#xbf;" horiz-adv-x="862" d="M74 -139q0 -61 22.5 -122t68.5 -109t116.5 -76.5t167.5 -28.5q82 0 144 20.5t108.5 54t79 78t57.5 93.5l-154 100q-43 -92 -99.5 -127t-135.5 -35q-76 0 -126.5 42t-50.5 110q0 72 39 121t119 120q49 45 86 81t61.5 67t36 61.5t11.5 67.5q0 57 -27 107.5t-106 121.5 l-127 -127q41 -41 53 -56t12 -36q0 -14 -7 -27.5t-25.5 -34t-52.5 -52t-87 -82.5q-39 -37 -72.5 -72t-58.5 -74t-39 -84t-14 -102zM338 821l154 -153l153 153l-153 154z" />
<glyph unicode="&#xc0;" horiz-adv-x="1392" d="M33 0h211l139 348h627l139 -348h211l-572 1391h-184zM311 1747l274 -250h222l-275 250h-221zM455 526l241 637l242 -637h-483z" />
<glyph unicode="&#xc1;" horiz-adv-x="1392" d="M33 0h211l139 348h627l139 -348h211l-572 1391h-184zM455 526l241 637l242 -637h-483zM592 1497h221l274 250h-221z" />
<glyph unicode="&#xc2;" horiz-adv-x="1392" d="M33 0h211l139 348h627l139 -348h211l-572 1391h-184zM374 1497h193l129 150l127 -150h192l-227 250h-186zM455 526l241 637l242 -637h-483z" />
<glyph unicode="&#xc3;" horiz-adv-x="1392" d="M33 0h211l139 348h627l139 -348h211l-572 1391h-184zM364 1512h137q2 43 15.5 61.5t36.5 18.5q25 0 60.5 -13.5t75.5 -29t81 -28.5t76 -13q84 0 127 59.5t53 155.5h-137q-4 -41 -18.5 -56.5t-37.5 -15.5q-29 0 -64.5 13.5t-75.5 28.5t-81 28.5t-78 13.5 q-41 0 -70.5 -17.5t-51 -48t-34 -71.5t-14.5 -86zM455 526l241 637l242 -637h-483z" />
<glyph unicode="&#xc4;" horiz-adv-x="1392" d="M33 0h211l139 348h627l139 -348h211l-572 1391h-184zM426 1526h196v197h-196v-197zM455 526l241 637l242 -637h-483zM768 1526h196v197h-196v-197z" />
<glyph unicode="&#xc5;" horiz-adv-x="1392" d="M33 0h211l139 348h627l139 -348h211l-572 1391h-184zM455 526l241 604l242 -604h-483zM498 1696q0 -84 57 -141.5t141 -57.5t141.5 57.5t57.5 141.5t-57.5 141t-141.5 57t-141 -57t-57 -141zM596 1696q0 41 29.5 70.5t70.5 29.5t71 -29.5t30 -70.5t-30 -71t-71 -30 t-70.5 30t-29.5 71z" />
<glyph unicode="&#xc6;" horiz-adv-x="1992" d="M33 0h219l219 338h561v-338h871v178h-674v471h506v178h-506v371h674v178h-975zM586 516l446 688v-688h-446z" />
<glyph unicode="&#xc7;" horiz-adv-x="1417" d="M117 688q0 -143 48 -265t132 -214t197.5 -151.5t244.5 -77.5l-34 -140q111 -6 110 -90q0 -49 -31.5 -69.5t-70.5 -20.5q-16 0 -36 2t-36 8v-112q10 -4 33.5 -8.5t46.5 -4.5q123 0 182.5 60.5t59.5 150.5q0 59 -37 96t-78 46l16 73q123 2 242 37t223 98v213 q-109 -78 -228.5 -120.5t-252.5 -42.5q-109 0 -204 41t-165.5 111.5t-111.5 167.5t-41 212q0 113 41 211t111.5 169t165.5 112t204 41q115 0 242.5 -47t240.5 -121v213q-115 66 -233.5 102.5t-249.5 36.5q-152 0 -284 -52.5t-232.5 -147.5t-157.5 -227t-57 -290z" />
<glyph unicode="&#xc8;" horiz-adv-x="1118" d="M158 0h870v178h-674v471h527v178h-527v371h674v178h-870v-1376zM203 1747l274 -250h222l-275 250h-221z" />
<glyph unicode="&#xc9;" horiz-adv-x="1118" d="M158 0h870v178h-674v471h527v178h-527v371h674v178h-870v-1376zM484 1497h221l274 250h-221z" />
<glyph unicode="&#xca;" horiz-adv-x="1118" d="M158 0h870v178h-674v471h527v178h-527v371h674v178h-870v-1376zM266 1497h193l129 150l127 -150h192l-227 250h-186z" />
<glyph unicode="&#xcb;" horiz-adv-x="1118" d="M158 0h870v178h-674v471h527v178h-527v371h674v178h-870v-1376zM318 1526h196v197h-196v-197zM660 1526h196v197h-196v-197z" />
<glyph unicode="&#xcc;" horiz-adv-x="512" d="M-127 1747l274 -250h222l-275 250h-221zM158 0h196v1376h-196v-1376z" />
<glyph unicode="&#xcd;" horiz-adv-x="512" d="M154 1497h221l274 250h-221zM158 0h196v1376h-196v-1376z" />
<glyph unicode="&#xce;" horiz-adv-x="512" d="M-64 1497h193l129 150l127 -150h192l-227 250h-186zM158 0h196v1376h-196v-1376z" />
<glyph unicode="&#xcf;" horiz-adv-x="512" d="M-12 1526h196v197h-196v-197zM158 0h196v1376h-196v-1376zM330 1526h196v197h-196v-197z" />
<glyph unicode="&#xd0;" horiz-adv-x="1454" d="M-12 649h170v-649h446q154 0 287 51t232.5 142.5t156.5 217t57 277.5q0 154 -60 281t-161.5 218t-237 140t-284.5 49h-436v-549h-170v-178zM354 178v471h336v178h-336v371h244q106 0 203.5 -38t169 -105.5t114.5 -160.5t43 -206q0 -104 -34.5 -197.5t-103 -162 t-171 -109.5t-235.5 -41h-230z" />
<glyph unicode="&#xd1;" horiz-adv-x="1568" d="M158 0h196v1083l860 -1083h197v1376h-197v-1083l-860 1083h-196v-1376zM452 1512h137q2 43 15.5 61.5t36.5 18.5q25 0 60.5 -13.5t75.5 -29t81 -28.5t76 -13q84 0 127 59.5t53 155.5h-137q-4 -41 -18.5 -56.5t-37.5 -15.5q-29 0 -64.5 13.5t-75.5 28.5t-81 28.5t-78 13.5 q-41 0 -70.5 -17.5t-51 -48t-34 -71.5t-14.5 -86z" />
<glyph unicode="&#xd2;" horiz-adv-x="1695" d="M117 688q0 -158 57 -290t157.5 -227t232.5 -147.5t284 -52.5q150 0 283 52.5t233 147.5t157.5 227t57.5 290t-57.5 290t-157.5 227t-233.5 147.5t-282.5 52.5q-152 0 -284 -52.5t-232.5 -147.5t-157.5 -227t-57 -290zM326 688q0 113 41 211t111.5 169t165.5 112t204 41 t204 -41t165.5 -112t111.5 -169t41 -211q0 -115 -41 -212t-111.5 -167.5t-166 -111.5t-203.5 -41q-109 0 -204 41t-165.5 111.5t-111.5 167.5t-41 212zM463 1747l274 -250h222l-275 250h-221z" />
<glyph unicode="&#xd3;" horiz-adv-x="1695" d="M117 688q0 -158 57 -290t157.5 -227t232.5 -147.5t284 -52.5q150 0 283 52.5t233 147.5t157.5 227t57.5 290t-57.5 290t-157.5 227t-233.5 147.5t-282.5 52.5q-152 0 -284 -52.5t-232.5 -147.5t-157.5 -227t-57 -290zM326 688q0 113 41 211t111.5 169t165.5 112t204 41 t204 -41t165.5 -112t111.5 -169t41 -211q0 -115 -41 -212t-111.5 -167.5t-166 -111.5t-203.5 -41q-109 0 -204 41t-165.5 111.5t-111.5 167.5t-41 212zM744 1497h221l274 250h-221z" />
<glyph unicode="&#xd4;" horiz-adv-x="1695" d="M117 688q0 -158 57 -290t157.5 -227t232.5 -147.5t284 -52.5q150 0 283 52.5t233 147.5t157.5 227t57.5 290t-57.5 290t-157.5 227t-233.5 147.5t-282.5 52.5q-152 0 -284 -52.5t-232.5 -147.5t-157.5 -227t-57 -290zM326 688q0 113 41 211t111.5 169t165.5 112t204 41 t204 -41t165.5 -112t111.5 -169t41 -211q0 -115 -41 -212t-111.5 -167.5t-166 -111.5t-203.5 -41q-109 0 -204 41t-165.5 111.5t-111.5 167.5t-41 212zM526 1497h193l129 150l127 -150h192l-227 250h-186z" />
<glyph unicode="&#xd5;" horiz-adv-x="1695" d="M117 688q0 -158 57 -290t157.5 -227t232.5 -147.5t284 -52.5q150 0 283 52.5t233 147.5t157.5 227t57.5 290t-57.5 290t-157.5 227t-233.5 147.5t-282.5 52.5q-152 0 -284 -52.5t-232.5 -147.5t-157.5 -227t-57 -290zM326 688q0 113 41 211t111.5 169t165.5 112t204 41 t204 -41t165.5 -112t111.5 -169t41 -211q0 -115 -41 -212t-111.5 -167.5t-166 -111.5t-203.5 -41q-109 0 -204 41t-165.5 111.5t-111.5 167.5t-41 212zM516 1512h137q2 43 15.5 61.5t36.5 18.5q25 0 60.5 -13.5t75.5 -29t81 -28.5t76 -13q84 0 127 59.5t53 155.5h-137 q-4 -41 -18.5 -56.5t-37.5 -15.5q-29 0 -64.5 13.5t-75.5 28.5t-81 28.5t-78 13.5q-41 0 -70.5 -17.5t-51 -48t-34 -71.5t-14.5 -86z" />
<glyph unicode="&#xd6;" horiz-adv-x="1695" d="M117 688q0 -158 57 -290t157.5 -227t232.5 -147.5t284 -52.5q150 0 283 52.5t233 147.5t157.5 227t57.5 290t-57.5 290t-157.5 227t-233.5 147.5t-282.5 52.5q-152 0 -284 -52.5t-232.5 -147.5t-157.5 -227t-57 -290zM326 688q0 113 41 211t111.5 169t165.5 112t204 41 t204 -41t165.5 -112t111.5 -169t41 -211q0 -115 -41 -212t-111.5 -167.5t-166 -111.5t-203.5 -41q-109 0 -204 41t-165.5 111.5t-111.5 167.5t-41 212zM578 1526h196v197h-196v-197zM920 1526h196v197h-196v-197z" />
<glyph unicode="&#xd7;" horiz-adv-x="802" d="M35 897l252 -252l-238 -237l115 -115l237 237l252 -251l115 112l-252 252l238 238l-115 114l-238 -237l-251 252z" />
<glyph unicode="&#xd8;" horiz-adv-x="1695" d="M117 688q0 -139 44 -256t122 -209l-136 -137l99 -98l139 139q96 -74 213 -115t250 -41q150 0 283 52.5t233 147.5t157.5 227t57.5 290q0 139 -44 256t-122 209l135 137l-98 99l-139 -140q-96 74 -213 115t-250 41q-152 0 -284 -52.5t-232.5 -147.5t-157.5 -227t-57 -290z M326 688q0 113 41 211t111.5 169t165.5 112t204 41q92 0 174.5 -29t148.5 -82l-743 -743q-47 66 -74.5 147.5t-27.5 173.5zM524 266l744 744q47 -66 74.5 -148t27.5 -174q0 -115 -41 -212t-111.5 -167.5t-166 -111.5t-203.5 -41q-92 0 -175 28.5t-149 81.5z" />
<glyph unicode="&#xd9;" horiz-adv-x="1523" d="M147 588q0 -160 55.5 -275.5t142.5 -191.5t196.5 -113t220.5 -37t220.5 37t196.5 113t142 191.5t55 275.5v788h-196v-796q0 -123 -42 -205t-104.5 -130t-135.5 -68.5t-136 -20.5t-136 20.5t-135.5 68.5t-104.5 130t-42 205v796h-197v-788zM377 1747l274 -250h222 l-275 250h-221z" />
<glyph unicode="&#xda;" horiz-adv-x="1523" d="M147 588q0 -160 55.5 -275.5t142.5 -191.5t196.5 -113t220.5 -37t220.5 37t196.5 113t142 191.5t55 275.5v788h-196v-796q0 -123 -42 -205t-104.5 -130t-135.5 -68.5t-136 -20.5t-136 20.5t-135.5 68.5t-104.5 130t-42 205v796h-197v-788zM658 1497h221l274 250h-221z " />
<glyph unicode="&#xdb;" horiz-adv-x="1523" d="M147 588q0 -160 55.5 -275.5t142.5 -191.5t196.5 -113t220.5 -37t220.5 37t196.5 113t142 191.5t55 275.5v788h-196v-796q0 -123 -42 -205t-104.5 -130t-135.5 -68.5t-136 -20.5t-136 20.5t-135.5 68.5t-104.5 130t-42 205v796h-197v-788zM440 1497h193l129 150l127 -150 h192l-227 250h-186z" />
<glyph unicode="&#xdc;" horiz-adv-x="1523" d="M147 588q0 -160 55.5 -275.5t142.5 -191.5t196.5 -113t220.5 -37t220.5 37t196.5 113t142 191.5t55 275.5v788h-196v-796q0 -123 -42 -205t-104.5 -130t-135.5 -68.5t-136 -20.5t-136 20.5t-135.5 68.5t-104.5 130t-42 205v796h-197v-788zM492 1526h196v197h-196v-197z M834 1526h196v197h-196v-197z" />
<glyph unicode="&#xdd;" horiz-adv-x="1232" d="M35 1376l483 -727v-649h197v649l483 727h-233l-349 -569l-348 569h-233zM512 1497h221l274 250h-221z" />
<glyph unicode="&#xde;" horiz-adv-x="1103" d="M158 0h196v274h232q88 0 171 26t148.5 77t105.5 130t40 185q0 74 -26 146.5t-83 131t-147 95.5t-222 37h-219v274h-196v-1376zM354 453v471h205q80 0 134.5 -20.5t86 -53.5t45 -75t13.5 -87q0 -117 -74 -176t-197 -59h-213z" />
<glyph unicode="&#xdf;" horiz-adv-x="1105" d="M129 0h190v934q0 297 218 297q98 0 149 -52.5t51 -121.5q0 -102 -68.5 -145.5t-219.5 -43.5v-163h43q68 0 126 -21.5t102 -60.5t68.5 -94.5t24.5 -122.5q0 -66 -20.5 -113t-53 -77t-73.5 -44t-80 -14q-35 0 -74 11t-68 28v-197q35 -8 75 -13t91 -5q70 0 141.5 27.5 t130 80.5t95.5 132.5t37 183.5q0 76 -21.5 137t-59.5 109t-88 83t-106 58q86 29 140.5 92t54.5 178q0 57 -25.5 117.5t-76 110.5t-124 82t-171.5 32q-66 0 -137.5 -22.5t-132 -75t-99.5 -137.5t-39 -209v-961z" />
<glyph unicode="&#xe0;" horiz-adv-x="966" d="M82 256q0 -59 23.5 -109.5t64.5 -87t98.5 -58t122.5 -21.5q72 0 130.5 26.5t127.5 79.5v-86h174v592q0 176 -93 266t-245 90q-80 0 -152.5 -18.5t-150.5 -52.5l-47 -191q66 43 141.5 72.5t161.5 29.5q33 0 67 -8t62.5 -29.5t47 -57.5t18.5 -91v-29q-127 0 -224.5 -12 t-168.5 -53q-92 -53 -125 -123t-33 -129zM100 1290l274 -250h222l-275 250h-221zM274 266q0 29 14.5 58.5t53.5 52.5q47 27 120 37t171 10v-195q-55 -45 -108.5 -65.5t-100.5 -20.5q-80 0 -115 38t-35 85z" />
<glyph unicode="&#xe1;" horiz-adv-x="966" d="M82 256q0 -59 23.5 -109.5t64.5 -87t98.5 -58t122.5 -21.5q72 0 130.5 26.5t127.5 79.5v-86h174v592q0 176 -93 266t-245 90q-80 0 -152.5 -18.5t-150.5 -52.5l-47 -191q66 43 141.5 72.5t161.5 29.5q33 0 67 -8t62.5 -29.5t47 -57.5t18.5 -91v-29q-127 0 -224.5 -12 t-168.5 -53q-92 -53 -125 -123t-33 -129zM274 266q0 29 14.5 58.5t53.5 52.5q47 27 120 37t171 10v-195q-55 -45 -108.5 -65.5t-100.5 -20.5q-80 0 -115 38t-35 85zM381 1040h221l274 250h-221z" />
<glyph unicode="&#xe2;" horiz-adv-x="966" d="M82 256q0 -59 23.5 -109.5t64.5 -87t98.5 -58t122.5 -21.5q72 0 130.5 26.5t127.5 79.5v-86h174v592q0 176 -93 266t-245 90q-80 0 -152.5 -18.5t-150.5 -52.5l-47 -191q66 43 141.5 72.5t161.5 29.5q33 0 67 -8t62.5 -29.5t47 -57.5t18.5 -91v-29q-127 0 -224.5 -12 t-168.5 -53q-92 -53 -125 -123t-33 -129zM163 1040h193l129 150l127 -150h192l-227 250h-186zM274 266q0 29 14.5 58.5t53.5 52.5q47 27 120 37t171 10v-195q-55 -45 -108.5 -65.5t-100.5 -20.5q-80 0 -115 38t-35 85z" />
<glyph unicode="&#xe3;" horiz-adv-x="966" d="M82 256q0 -59 23.5 -109.5t64.5 -87t98.5 -58t122.5 -21.5q72 0 130.5 26.5t127.5 79.5v-86h174v592q0 176 -93 266t-245 90q-80 0 -152.5 -18.5t-150.5 -52.5l-47 -191q66 43 141.5 72.5t161.5 29.5q33 0 67 -8t62.5 -29.5t47 -57.5t18.5 -91v-29q-127 0 -224.5 -12 t-168.5 -53q-92 -53 -125 -123t-33 -129zM153 1055h137q2 43 15.5 61.5t36.5 18.5q25 0 60.5 -13.5t75.5 -29t81 -28.5t76 -13q84 0 127 59.5t53 155.5h-137q-4 -41 -18.5 -56.5t-37.5 -15.5q-29 0 -64.5 13.5t-75.5 28.5t-81 28.5t-78 13.5q-41 0 -70.5 -17.5t-51 -48 t-34 -71.5t-14.5 -86zM274 266q0 29 14.5 58.5t53.5 52.5q47 27 120 37t171 10v-195q-55 -45 -108.5 -65.5t-100.5 -20.5q-80 0 -115 38t-35 85z" />
<glyph unicode="&#xe4;" horiz-adv-x="966" d="M82 256q0 -59 23.5 -109.5t64.5 -87t98.5 -58t122.5 -21.5q72 0 130.5 26.5t127.5 79.5v-86h174v592q0 176 -93 266t-245 90q-80 0 -152.5 -18.5t-150.5 -52.5l-47 -191q66 43 141.5 72.5t161.5 29.5q33 0 67 -8t62.5 -29.5t47 -57.5t18.5 -91v-29q-127 0 -224.5 -12 t-168.5 -53q-92 -53 -125 -123t-33 -129zM215 1069h196v197h-196v-197zM274 266q0 29 14.5 58.5t53.5 52.5q47 27 120 37t171 10v-195q-55 -45 -108.5 -65.5t-100.5 -20.5q-80 0 -115 38t-35 85zM557 1069h196v197h-196v-197z" />
<glyph unicode="&#xe5;" horiz-adv-x="966" d="M0 256q0 -59 23.5 -109.5t64.5 -87t98.5 -58t122.5 -21.5q72 0 130.5 26.5t127.5 79.5v-86h174v592q0 176 -93 266t-245 90q-80 0 -152.5 -18.5t-150.5 -52.5l-47 -191q66 43 141.5 72.5t161.5 29.5q33 0 67 -8t62.5 -29.5t47 -57.5t18.5 -91v-29q-127 0 -224.5 -12 t-168.5 -53q-92 -53 -125 -123t-33 -129zM190 1239q0 -84 57.5 -141.5t141.5 -57.5t141.5 57.5t57.5 141.5t-57.5 141.5t-141.5 57.5t-141.5 -57.5t-57.5 -141.5zM193 266q0 29 14 58.5t53 52.5q47 27 120 37t171 10v-195q-55 -45 -108.5 -65.5t-100.5 -20.5 q-80 0 -114.5 38t-34.5 85zM289 1239q0 41 29.5 70.5t70.5 29.5t70.5 -29.5t29.5 -70.5t-29.5 -70.5t-70.5 -29.5t-70.5 29.5t-29.5 70.5z" />
<glyph unicode="&#xe6;" horiz-adv-x="1630" d="M82 256q0 -59 24.5 -109.5t67.5 -89.5t100.5 -60.5t122.5 -21.5q98 0 187.5 40t167.5 106q61 -70 152 -108t204 -38q225 0 401 121v189q-68 -55 -164 -96.5t-212 -41.5q-119 0 -205 64.5t-94 198.5h692v12q0 141 -37 240.5t-98.5 163t-141.5 93t-164 29.5 q-109 0 -188.5 -34.5t-134.5 -94.5q-90 129 -277 129q-80 0 -152.5 -18.5t-150.5 -52.5l-47 -191q66 43 141.5 72.5t161.5 29.5q33 0 67 -8t62.5 -29.5t47 -57.5t18.5 -91v-29q-127 0 -224.5 -13t-168.5 -54q-43 -25 -74 -57.5t-49.5 -66.5t-26.5 -67.5t-8 -58.5zM274 266 q0 23 13.5 54.5t54.5 54.5q47 27 121 34t172 7q6 -92 37 -166q-137 -109 -248 -109q-80 0 -115 39t-35 86zM834 569q6 41 22 80t45 69t72 48t102 18q104 0 169 -62.5t71 -152.5h-481z" />
<glyph unicode="&#xe7;" horiz-adv-x="1001" d="M102 467q0 -106 34 -190t90.5 -144.5t131 -97.5t156.5 -49l-27 -121q51 -4 81 -26.5t30 -57.5q0 -53 -34 -70.5t-62 -17.5q-33 0 -58 14v-102q8 -2 29 -3t29 -1q104 0 164.5 51t60.5 135q0 61 -38 96t-77 45l11 52q78 4 154.5 23t129.5 52v209q-41 -35 -119.5 -70.5 t-179.5 -35.5q-51 0 -105 17.5t-98.5 54t-73 95t-28.5 142.5q0 63 20.5 119.5t59.5 98.5t95.5 66.5t125.5 24.5q84 0 161 -32.5t142 -77.5v208q-66 37 -149.5 58.5t-159.5 21.5q-109 0 -200 -40t-156.5 -107.5t-102.5 -155.5t-37 -184z" />
<glyph unicode="&#xe8;" horiz-adv-x="1099" d="M102 469q0 -113 34 -204t95.5 -155.5t149.5 -99.5t197 -35q225 0 401 121v189q-68 -55 -164 -96.5t-213 -41.5q-119 0 -205 64.5t-94 198.5h692v12q0 141 -36.5 240.5t-98 163t-141.5 93t-164 29.5q-117 0 -202 -42t-140 -109.5t-83 -153.5t-28 -174zM166 1290l274 -250 h222l-275 250h-221zM303 569q6 41 22.5 80t45 69t71.5 48t103 18q104 0 168.5 -62.5t70.5 -152.5h-481z" />
<glyph unicode="&#xe9;" horiz-adv-x="1099" d="M102 469q0 -113 34 -204t95.5 -155.5t149.5 -99.5t197 -35q225 0 401 121v189q-68 -55 -164 -96.5t-213 -41.5q-119 0 -205 64.5t-94 198.5h692v12q0 141 -36.5 240.5t-98 163t-141.5 93t-164 29.5q-117 0 -202 -42t-140 -109.5t-83 -153.5t-28 -174zM303 569 q6 41 22.5 80t45 69t71.5 48t103 18q104 0 168.5 -62.5t70.5 -152.5h-481zM447 1040h221l274 250h-221z" />
<glyph unicode="&#xea;" horiz-adv-x="1099" d="M102 469q0 -113 34 -204t95.5 -155.5t149.5 -99.5t197 -35q225 0 401 121v189q-68 -55 -164 -96.5t-213 -41.5q-119 0 -205 64.5t-94 198.5h692v12q0 141 -36.5 240.5t-98 163t-141.5 93t-164 29.5q-117 0 -202 -42t-140 -109.5t-83 -153.5t-28 -174zM229 1040h193 l129 150l127 -150h192l-227 250h-186zM303 569q6 41 22.5 80t45 69t71.5 48t103 18q104 0 168.5 -62.5t70.5 -152.5h-481z" />
<glyph unicode="&#xeb;" horiz-adv-x="1099" d="M102 469q0 -113 34 -204t95.5 -155.5t149.5 -99.5t197 -35q225 0 401 121v189q-68 -55 -164 -96.5t-213 -41.5q-119 0 -205 64.5t-94 198.5h692v12q0 141 -36.5 240.5t-98 163t-141.5 93t-164 29.5q-117 0 -202 -42t-140 -109.5t-83 -153.5t-28 -174zM281 1069h196v197 h-196v-197zM303 569q6 41 22.5 80t45 69t71.5 48t103 18q104 0 168.5 -62.5t70.5 -152.5h-481zM623 1069h196v197h-196v-197z" />
<glyph unicode="&#xec;" horiz-adv-x="471" d="M-147 1290l274 -250h222l-275 250h-221zM139 0h191v928h-191v-928z" />
<glyph unicode="&#xed;" horiz-adv-x="471" d="M134 1040h221l274 250h-221zM139 0h191v928h-191v-928z" />
<glyph unicode="&#xee;" horiz-adv-x="471" d="M-84 1040h193l129 150l127 -150h192l-227 250h-186zM139 0h191v928h-191v-928z" />
<glyph unicode="&#xef;" horiz-adv-x="471" d="M-32 1069h196v197h-196v-197zM139 0h191v928h-191v-928zM310 1069h196v197h-196v-197z" />
<glyph unicode="&#xf0;" horiz-adv-x="1128" d="M102 463q0 -117 39 -207t102.5 -151.5t144.5 -94.5t163 -33q106 0 193 40t149.5 109t97.5 161t35 194q0 88 -20.5 180.5t-53 180.5t-74.5 172t-85 157l174 78l-52 117l-190 -86q-16 27 -32.5 50.5t-30.5 45.5h-216q18 -25 47 -70.5t64 -101.5l-176 -80l51 -116l191 86 q35 -59 64.5 -119t47.5 -107q-39 31 -96 45.5t-117 14.5q-98 0 -176 -40t-132 -106.5t-83 -149.5t-29 -169zM301 463q0 57 19.5 111.5t54.5 97.5t83 68.5t107 25.5q76 0 133.5 -30.5t96.5 -71.5q16 -35 23 -90.5t7 -110.5q0 -61 -20.5 -114.5t-55 -93.5t-83 -62.5 t-105.5 -22.5t-104 23.5t-82 64.5t-54.5 93t-19.5 112z" />
<glyph unicode="&#xf1;" horiz-adv-x="1179" d="M154 0h190v668q47 35 115.5 66.5t146.5 31.5q111 0 175.5 -68.5t64.5 -197.5v-500h190v489q0 145 -44 234.5t-107.5 138.5t-133 65.5t-120.5 16.5q-106 0 -180 -33.5t-123 -68.5v86h-174v-928zM258 1055h137q2 43 15.5 61.5t36.5 18.5q25 0 60.5 -13.5t75.5 -29t81 -28.5 t76 -13q84 0 127 59.5t53 155.5h-137q-4 -41 -18.5 -56.5t-37.5 -15.5q-29 0 -64.5 13.5t-75.5 28.5t-81 28.5t-78 13.5q-41 0 -70.5 -17.5t-51 -48t-34 -71.5t-14.5 -86z" />
<glyph unicode="&#xf2;" horiz-adv-x="1196" d="M102 463q0 -102 37 -190.5t103.5 -154t156.5 -103.5t199 -38q106 0 197.5 38t158 103.5t103.5 154t37 190.5q0 100 -37 189t-103.5 154.5t-157.5 103.5t-198 38q-109 0 -199 -38t-156.5 -103.5t-103.5 -154.5t-37 -189zM213 1290l274 -250h222l-275 250h-221zM301 463 q0 70 22.5 126t62.5 97t94.5 63.5t117.5 22.5t117.5 -22.5t94.5 -63.5t62.5 -97t22.5 -126t-22.5 -126t-62.5 -97t-94 -63.5t-118 -22.5q-63 0 -117.5 22.5t-94.5 63.5t-62.5 97t-22.5 126z" />
<glyph unicode="&#xf3;" horiz-adv-x="1196" d="M102 463q0 -102 37 -190.5t103.5 -154t156.5 -103.5t199 -38q106 0 197.5 38t158 103.5t103.5 154t37 190.5q0 100 -37 189t-103.5 154.5t-157.5 103.5t-198 38q-109 0 -199 -38t-156.5 -103.5t-103.5 -154.5t-37 -189zM301 463q0 70 22.5 126t62.5 97t94.5 63.5 t117.5 22.5t117.5 -22.5t94.5 -63.5t62.5 -97t22.5 -126t-22.5 -126t-62.5 -97t-94 -63.5t-118 -22.5q-63 0 -117.5 22.5t-94.5 63.5t-62.5 97t-22.5 126zM494 1040h221l274 250h-221z" />
<glyph unicode="&#xf4;" horiz-adv-x="1196" d="M102 463q0 -102 37 -190.5t103.5 -154t156.5 -103.5t199 -38q106 0 197.5 38t158 103.5t103.5 154t37 190.5q0 100 -37 189t-103.5 154.5t-157.5 103.5t-198 38q-109 0 -199 -38t-156.5 -103.5t-103.5 -154.5t-37 -189zM276 1040h193l129 150l127 -150h192l-227 250h-186 zM301 463q0 70 22.5 126t62.5 97t94.5 63.5t117.5 22.5t117.5 -22.5t94.5 -63.5t62.5 -97t22.5 -126t-22.5 -126t-62.5 -97t-94 -63.5t-118 -22.5q-63 0 -117.5 22.5t-94.5 63.5t-62.5 97t-22.5 126z" />
<glyph unicode="&#xf5;" horiz-adv-x="1196" d="M102 463q0 -102 37 -190.5t103.5 -154t156.5 -103.5t199 -38q106 0 197.5 38t158 103.5t103.5 154t37 190.5q0 100 -37 189t-103.5 154.5t-157.5 103.5t-198 38q-109 0 -199 -38t-156.5 -103.5t-103.5 -154.5t-37 -189zM266 1055h137q2 43 15.5 61.5t36.5 18.5 q25 0 60.5 -13.5t75.5 -29t81 -28.5t76 -13q84 0 127 59.5t53 155.5h-137q-4 -41 -18.5 -56.5t-37.5 -15.5q-29 0 -64.5 13.5t-75.5 28.5t-81 28.5t-78 13.5q-41 0 -70.5 -17.5t-51 -48t-34 -71.5t-14.5 -86zM301 463q0 70 22.5 126t62.5 97t94.5 63.5t117.5 22.5 t117.5 -22.5t94.5 -63.5t62.5 -97t22.5 -126t-22.5 -126t-62.5 -97t-94 -63.5t-118 -22.5q-63 0 -117.5 22.5t-94.5 63.5t-62.5 97t-22.5 126z" />
<glyph unicode="&#xf6;" horiz-adv-x="1196" d="M102 463q0 -102 37 -190.5t103.5 -154t156.5 -103.5t199 -38q106 0 197.5 38t158 103.5t103.5 154t37 190.5q0 100 -37 189t-103.5 154.5t-157.5 103.5t-198 38q-109 0 -199 -38t-156.5 -103.5t-103.5 -154.5t-37 -189zM301 463q0 70 22.5 126t62.5 97t94.5 63.5 t117.5 22.5t117.5 -22.5t94.5 -63.5t62.5 -97t22.5 -126t-22.5 -126t-62.5 -97t-94 -63.5t-118 -22.5q-63 0 -117.5 22.5t-94.5 63.5t-62.5 97t-22.5 126zM328 1069h196v197h-196v-197zM670 1069h196v197h-196v-197z" />
<glyph unicode="&#xf7;" horiz-adv-x="921" d="M45 565h832v162h-832v-162zM362 225h197v197h-197v-197zM362 870h197v197h-197v-197z" />
<glyph unicode="&#xf8;" horiz-adv-x="1212" d="M102 49l91 -90l112 113q61 -45 137 -70t164 -25q106 0 197.5 38t158 103.5t103.5 153.5t37 191q0 86 -26.5 164t-76.5 139l111 111l-90 90l-113 -113q-61 45 -137 69.5t-164 24.5q-109 0 -199 -38t-156.5 -103.5t-103 -154.5t-36.5 -189q0 -86 26.5 -164t75.5 -139z M309 463q0 70 22.5 126t62.5 97t94.5 63.5t117.5 22.5q94 0 168 -51l-424 -424q-41 72 -41 166zM438 205l424 424q41 -72 41 -166q0 -70 -22.5 -126t-62.5 -97t-94 -63.5t-118 -22.5q-94 0 -168 51z" />
<glyph unicode="&#xf9;" horiz-adv-x="1179" d="M143 436q0 -145 44 -234t107.5 -138.5t133.5 -65.5t121 -16q106 0 180 34.5t123 69.5v-86h174v928h-190v-668q-47 -35 -116 -67.5t-147 -32.5q-111 0 -175 68.5t-64 197.5v502h-191v-492zM205 1290l274 -250h222l-275 250h-221z" />
<glyph unicode="&#xfa;" horiz-adv-x="1179" d="M143 436q0 -145 44 -234t107.5 -138.5t133.5 -65.5t121 -16q106 0 180 34.5t123 69.5v-86h174v928h-190v-668q-47 -35 -116 -67.5t-147 -32.5q-111 0 -175 68.5t-64 197.5v502h-191v-492zM486 1040h221l274 250h-221z" />
<glyph unicode="&#xfb;" horiz-adv-x="1179" d="M143 436q0 -145 44 -234t107.5 -138.5t133.5 -65.5t121 -16q106 0 180 34.5t123 69.5v-86h174v928h-190v-668q-47 -35 -116 -67.5t-147 -32.5q-111 0 -175 68.5t-64 197.5v502h-191v-492zM268 1040h193l129 150l127 -150h192l-227 250h-186z" />
<glyph unicode="&#xfc;" horiz-adv-x="1179" d="M143 436q0 -145 44 -234t107.5 -138.5t133.5 -65.5t121 -16q106 0 180 34.5t123 69.5v-86h174v928h-190v-668q-47 -35 -116 -67.5t-147 -32.5q-111 0 -175 68.5t-64 197.5v502h-191v-492zM320 1069h196v197h-196v-197zM662 1069h196v197h-196v-197z" />
<glyph unicode="&#xfd;" horiz-adv-x="1028" d="M-25 -289v-170q20 -4 54 -7t51 -3q106 0 185 55.5t151 194.5l579 1147h-200l-306 -631l-313 631h-201l416 -813l-143 -283q-39 -78 -84 -105.5t-111 -27.5q-12 0 -36.5 3t-41.5 9zM410 1040h221l274 250h-221z" />
<glyph unicode="&#xfe;" horiz-adv-x="1183" d="M154 -449h190v506q51 -33 117.5 -55t148.5 -22q88 0 172 33.5t150.5 97t107.5 152.5t41 198q0 127 -46 218t-115.5 150.5t-151.5 88t-154 28.5q-78 0 -147.5 -25.5t-122.5 -66.5v522h-190v-1825zM344 242v428q16 14 40 31.5t54.5 33t68.5 25.5t83 10q49 0 100 -17.5 t94 -55.5t70 -96t27 -140q0 -61 -19.5 -117.5t-56.5 -97.5t-90 -65.5t-121 -24.5q-78 0 -141.5 25.5t-108.5 60.5z" />
<glyph unicode="&#xff;" horiz-adv-x="1028" d="M-25 -289v-170q20 -4 54 -7t51 -3q106 0 185 55.5t151 194.5l579 1147h-200l-306 -631l-313 631h-201l416 -813l-143 -283q-39 -78 -84 -105.5t-111 -27.5q-12 0 -36.5 3t-41.5 9zM244 1069h196v197h-196v-197zM586 1069h196v197h-196v-197z" />
<glyph unicode="&#x152;" horiz-adv-x="2330" d="M117 688q0 -158 57 -290t157.5 -227t232.5 -147.5t284 -52.5q160 0 293 57.5t229 161.5v-190h871v178h-678v471h510v178h-510v371h678v178h-871v-190q-96 104 -229 161.5t-293 57.5q-152 0 -284 -52.5t-232.5 -147.5t-157.5 -227t-57 -290zM326 688q0 113 41 211 t111.5 169t165.5 112t204 41t204 -41t165.5 -112t111.5 -169t41 -211q0 -115 -41 -212t-111.5 -167.5t-166 -111.5t-203.5 -41q-109 0 -204 41t-165.5 111.5t-111.5 167.5t-41 212z" />
<glyph unicode="&#x153;" horiz-adv-x="1892" d="M102 463q0 -102 37 -190.5t103.5 -154t156.5 -103.5t199 -38q123 0 223.5 48.5t165.5 130.5q61 -86 158.5 -133.5t224.5 -47.5q225 0 402 121v189q-68 -55 -164.5 -96.5t-212.5 -41.5q-119 0 -205 64.5t-94 198.5h692v12q0 141 -37 240.5t-98.5 163t-141 93t-163.5 29.5 q-129 0 -218.5 -49t-144.5 -127q-66 82 -165 129t-222 47q-109 0 -199 -38t-156.5 -103.5t-103.5 -154.5t-37 -189zM301 463q0 70 22.5 126t62.5 97t94.5 63.5t117.5 22.5t117.5 -22.5t94.5 -63.5t62.5 -97t22.5 -126t-22.5 -126t-62.5 -97t-94 -63.5t-118 -22.5 q-63 0 -117.5 22.5t-94.5 63.5t-62.5 97t-22.5 126zM1096 569q6 41 22.5 80t45 69t71.5 48t102 18q104 0 169 -62.5t71 -152.5h-481z" />
<glyph unicode="&#x178;" horiz-adv-x="1232" d="M35 1376l483 -727v-649h197v649l483 727h-233l-349 -569l-348 569h-233zM346 1526h196v197h-196v-197zM688 1526h196v197h-196v-197z" />
<glyph unicode="&#x2c6;" horiz-adv-x="1024" d="M190 1040h193l129 150l127 -150h192l-227 250h-186z" />
<glyph unicode="&#x2dc;" horiz-adv-x="1024" d="M180 1055h137q2 43 15.5 61.5t36.5 18.5q25 0 60.5 -13.5t75.5 -29t81 -28.5t76 -13q84 0 127 59.5t53 155.5h-137q-4 -41 -18.5 -56.5t-37.5 -15.5q-29 0 -64.5 13.5t-75.5 28.5t-81 28.5t-78 13.5q-41 0 -70.5 -17.5t-51 -48t-34 -71.5t-14.5 -86z" />
<glyph unicode="&#x2000;" horiz-adv-x="947" />
<glyph unicode="&#x2001;" horiz-adv-x="1894" />
<glyph unicode="&#x2002;" horiz-adv-x="947" />
<glyph unicode="&#x2003;" horiz-adv-x="1894" />
<glyph unicode="&#x2004;" horiz-adv-x="631" />
<glyph unicode="&#x2005;" horiz-adv-x="473" />
<glyph unicode="&#x2006;" horiz-adv-x="315" />
<glyph unicode="&#x2007;" horiz-adv-x="315" />
<glyph unicode="&#x2008;" horiz-adv-x="236" />
<glyph unicode="&#x2009;" horiz-adv-x="378" />
<glyph unicode="&#x200a;" horiz-adv-x="105" />
<glyph unicode="&#x2010;" horiz-adv-x="886" d="M106 422h674v182h-674v-182z" />
<glyph unicode="&#x2011;" horiz-adv-x="886" d="M106 422h674v182h-674v-182z" />
<glyph unicode="&#x2012;" horiz-adv-x="886" d="M106 422h674v182h-674v-182z" />
<glyph unicode="&#x2013;" horiz-adv-x="1200" d="M127 442h946v162h-946v-162z" />
<glyph unicode="&#x2014;" horiz-adv-x="1531" d="M127 442h1278v162h-1278v-162z" />
<glyph unicode="&#x2018;" horiz-adv-x="452" d="M59 973h197v157q0 57 6 98.5t25.5 72t55.5 54t95 46.5q-10 2 -19 3t-20 1q-72 0 -133 -18.5t-107 -55.5t-73 -89t-27 -120v-149z" />
<glyph unicode="&#x2019;" horiz-adv-x="452" d="M14 948q10 -2 19.5 -3t19.5 -1q72 0 133.5 18.5t107.5 55.5t72.5 89t26.5 120v149h-196v-157q0 -57 -6.5 -98.5t-26 -72t-55 -54t-95.5 -46.5z" />
<glyph unicode="&#x201a;" horiz-adv-x="485" d="M14 -231q10 -2 19.5 -3.5t19.5 -1.5q72 0 133.5 18.5t107.5 55.5t72.5 89t26.5 120v150h-196v-158q0 -57 -6.5 -98t-26 -72t-55 -54.5t-95.5 -45.5z" />
<glyph unicode="&#x201c;" horiz-adv-x="811" d="M59 973h197v131q0 57 6 98t25.5 72t55.5 54t95 46q-10 2 -19 3t-20 1q-72 0 -133 -18.5t-107 -55t-73 -89t-27 -119.5v-123zM418 973h196v157q0 57 6.5 98.5t26 72t55.5 54t95 46.5q-10 2 -19.5 3t-19.5 1q-72 0 -133.5 -18.5t-107.5 -55.5t-72.5 -89t-26.5 -120v-149z " />
<glyph unicode="&#x201d;" horiz-adv-x="811" d="M14 948q10 -2 19.5 -3t19.5 -1q72 0 133.5 18.5t107.5 55.5t72.5 89t26.5 120v149h-196v-157q0 -57 -6.5 -98.5t-26 -72t-55 -54t-95.5 -46.5zM373 975q10 -2 19 -3t20 -1q72 0 133 18.5t107 55t73 88.5t27 120v123h-197v-131q0 -57 -6 -98t-25.5 -72t-55.5 -54.5 t-95 -45.5z" />
<glyph unicode="&#x201e;" horiz-adv-x="843" d="M14 -231q10 -2 19.5 -3.5t19.5 -1.5q72 0 133.5 18.5t107.5 55.5t72.5 89t26.5 120v150h-196v-158q0 -57 -6.5 -98t-26 -72t-55 -54.5t-95.5 -45.5zM373 -205q10 -2 19 -3t20 -1q72 0 133 18.5t107 55.5t73 89t27 120v123h-197v-131q0 -57 -6 -98.5t-25.5 -72t-55.5 -54 t-95 -46.5z" />
<glyph unicode="&#x2022;" horiz-adv-x="602" d="M55 618q0 -51 19.5 -95t53.5 -77.5t78 -53t95 -19.5t95 19.5t78 53t53.5 77.5t19.5 95t-19.5 95.5t-53.5 78t-78 53t-95 19.5t-95 -19.5t-78 -53t-53.5 -77.5t-19.5 -96z" />
<glyph unicode="&#x2026;" horiz-adv-x="1173" d="M102 467q0 -123 44 -214t113 -151.5t151 -90t159 -29.5q152 0 287 104v-86h174v928h-174v-86q-135 104 -287 104q-80 0 -162.5 -29.5t-150.5 -90t-111 -150.5t-43 -209zM303 467q0 61 19.5 117.5t56.5 97.5t90 65.5t121 24.5q78 0 141.5 -25.5t108.5 -60.5v-444 q-45 -35 -108.5 -60.5t-141.5 -25.5q-133 0 -210 86t-77 225z" />
<glyph unicode="&#x202f;" horiz-adv-x="378" />
<glyph unicode="&#x2039;" horiz-adv-x="598" d="M55 463l303 -391h215l-303 391l303 391h-215z" />
<glyph unicode="&#x203a;" horiz-adv-x="598" d="M25 72h215l303 391l-303 391h-215l303 -391z" />
<glyph unicode="&#x205f;" horiz-adv-x="473" />
<glyph unicode="&#x2122;" horiz-adv-x="763" d="M51 1327h109v-289h59v289h109v55h-277v-55zM360 1038h60v244l117 -135l114 135v-244h62v344h-54l-122 -143l-123 143h-54v-344z" />
<glyph unicode="&#xe000;" horiz-adv-x="931" d="M0 0v932h932v-932h-932z" />
<glyph unicode="&#xfb01;" horiz-adv-x="1257" d="M51 766h189v-766h190v766h301v162h-301v106q0 109 44 154t128 45q25 0 52.5 -4t53 -10.5t49.5 -14.5t38 -14v182q-59 18 -112.5 25.5t-96.5 7.5q-100 0 -167 -32t-107 -84t-56 -118.5t-16 -136.5v-106h-189v-162zM868 1208l154 -153l154 153l-154 154zM926 0h190v928 h-190v-928z" />
<glyph unicode="&#xfb02;" horiz-adv-x="1488" d="M51 766h189v-766h190v766h301v162h-301v106q0 109 44 154t128 45q25 0 52.5 -4t53 -10.5t49.5 -14.5t38 -14v182q-59 18 -112.5 25.5t-96.5 7.5q-100 0 -167 -32t-107 -84t-56 -118.5t-16 -136.5v-106h-189v-162zM932 324q0 -78 15.5 -141.5t52 -107.5t95 -67.5 t144.5 -23.5q23 0 72 3.5t119 32.5v168q-29 -14 -70 -27.5t-100 -13.5q-41 0 -68 14.5t-42 37t-21.5 53.5t-6.5 65v1059h-190v-1052z" />
</font>
</defs>
</svg>
